<svg width="64" height="64" viewBox="0 0 64 64" fill="none" xmlns="http://www.w3.org/2000/svg">
<path d="M5.5 62H58.5C59.4283 62 60.3185 61.6312 60.9749 60.9749C61.6312 60.3185 62 59.4283 62 58.5V56H58.74C59.556 55.0164 60.0018 53.778 60 52.5C60 50.29 57.42 47.07 56 45.5V24.84C56 24.0868 55.7008 23.3644 55.1682 22.8318C54.6356 22.2992 53.9132 22 53.16 22H45V15.1C45 14.8083 44.8841 14.5285 44.6778 14.3222C44.4715 14.1159 44.1917 14 43.9 14H43V12.86C43.8565 12.6389 44.6155 12.1401 45.1583 11.4416C45.7011 10.7432 45.9971 9.88456 46 9C46 7.06 43.29 3.94 42.74 3.33L42 2.5L41.26 3.33C40.71 3.94 38 7.06 38 9C38.0029 9.88456 38.2989 10.7432 38.8417 11.4416C39.3845 12.1401 40.1435 12.6389 41 12.86V14H40.1C39.8083 14 39.5285 14.1159 39.3222 14.3222C39.1159 14.5285 39 14.8083 39 15.1V22H35V15.1C35 14.8083 34.8841 14.5285 34.6778 14.3222C34.4715 14.1159 34.1917 14 33.9 14H33V12.86C33.8565 12.6389 34.6155 12.1401 35.1583 11.4416C35.7011 10.7432 35.9971 9.88456 36 9C36 7.06 33.29 3.94 32.74 3.33L32 2.5L31.26 3.33C30.71 3.94 28 7.06 28 9C28.0029 9.88456 28.2989 10.7432 28.8417 11.4416C29.3845 12.1401 30.1435 12.6389 31 12.86V14H30.1C29.8083 14 29.5285 14.1159 29.3222 14.3222C29.1159 14.5285 29 14.8083 29 15.1V22H25V15.1C25 14.8083 24.8841 14.5285 24.6778 14.3222C24.4715 14.1159 24.1917 14 23.9 14H23V12.86C23.8565 12.6389 24.6155 12.1401 25.1583 11.4416C25.7011 10.7432 25.9971 9.88456 26 9C26 7.06 23.29 3.94 22.74 3.33L22 2.5L21.26 3.33C20.71 3.94 18 7.06 18 9C18.0029 9.88456 18.2989 10.7432 18.8417 11.4416C19.3845 12.1401 20.1435 12.6389 21 12.86V14H20.1C19.8083 14 19.5285 14.1159 19.3222 14.3222C19.1159 14.5285 19 14.8083 19 15.1V22H10.84C10.0868 22 9.36442 22.2992 8.83182 22.8318C8.29921 23.3644 8 24.0868 8 24.84V45.46C6.58 47.07 4 50.29 4 52.46C3.98882 53.7518 4.43517 55.0058 5.26 56H2V58.5C2 59.4283 2.36875 60.3185 3.02513 60.9749C3.6815 61.6312 4.57174 62 5.5 62ZM40 9C40 8.36 40.94 6.87 42 5.55C43.06 6.88 44 8.38 44 9C44 9.53043 43.7893 10.0391 43.4142 10.4142C43.0391 10.7893 42.5304 11 42 11C41.4696 11 40.9609 10.7893 40.5858 10.4142C40.2107 10.0391 40 9.53043 40 9ZM30 9C30 8.36 30.94 6.87 32 5.55C33.06 6.88 34 8.38 34 9C34 9.53043 33.7893 10.0391 33.4142 10.4142C33.0391 10.7893 32.5304 11 32 11C31.4696 11 30.9609 10.7893 30.5858 10.4142C30.2107 10.0391 30 9.53043 30 9ZM20 9C20 8.36 20.94 6.87 22 5.55C23.06 6.88 24 8.38 24 9C24 9.53043 23.7893 10.0391 23.4142 10.4142C23.0391 10.7893 22.5304 11 22 11C21.4696 11 20.9609 10.7893 20.5858 10.4142C20.2107 10.0391 20 9.53043 20 9ZM54.5 56C53.5717 56 52.6815 55.6312 52.0251 54.9749C51.3688 54.3185 51 53.4283 51 52.5C51 51.25 52.86 48.65 54.5 46.78C56.14 48.65 58 51.25 58 52.5C58 53.4283 57.6312 54.3185 56.9749 54.9749C56.3185 55.6312 55.4283 56 54.5 56ZM15 52.5C15 51.25 16.86 48.65 18.5 46.78C20.14 48.65 22 51.25 22 52.5C22 53.4283 21.6313 54.3185 20.9749 54.9749C20.3185 55.6312 19.4283 56 18.5 56C17.5717 56 16.6815 55.6312 16.0251 54.9749C15.3687 54.3185 15 53.4283 15 52.5ZM14.26 56H13.74C13.83 55.89 13.92 55.77 14 55.65C14.08 55.77 14.17 55.89 14.26 56ZM10 39.44C10.6057 39.7995 11.2957 39.9927 12 40C13.0609 40 14.0783 39.5786 14.8284 38.8284C15.5786 38.0783 16 37.0609 16 36V31C16 30.4696 16.2107 29.9609 16.5858 29.5858C16.9609 29.2107 17.4696 29 18 29C18.5304 29 19.0391 29.2107 19.4142 29.5858C19.7893 29.9609 20 30.4696 20 31V36.5C19.9375 37.8914 20.4283 39.251 21.3652 40.2816C22.3021 41.3122 23.6089 41.93 25 42C26.3911 41.93 27.6979 41.3122 28.6348 40.2816C29.5717 39.251 30.0625 37.8914 30 36.5V31C30 30.4696 30.2107 29.9609 30.5858 29.5858C30.9609 29.2107 31.4696 29 32 29C32.5304 29 33.0391 29.2107 33.4142 29.5858C33.7893 29.9609 34 30.4696 34 31V36C34 37.0609 34.4214 38.0783 35.1716 38.8284C35.9217 39.5786 36.9391 40 38 40C39.0609 40 40.0783 39.5786 40.8284 38.8284C41.5786 38.0783 42 37.0609 42 36V31C42 30.4696 42.2107 29.9609 42.5858 29.5858C42.9609 29.2107 43.4696 29 44 29C44.5304 29 45.0391 29.2107 45.4142 29.5858C45.7893 29.9609 46 30.4696 46 31V36C46 36.6566 46.1293 37.3068 46.3806 37.9134C46.6319 38.52 47.0002 39.0712 47.4645 39.5355C47.9288 39.9998 48.48 40.3681 49.0866 40.6194C49.6932 40.8707 50.3434 41 51 41C52.0819 41 53.1345 40.6491 54 40V44.4L53.78 44.63C52.3433 46.1191 51.0756 47.7624 50 49.53C48.9256 47.7554 47.6579 46.1053 46.22 44.61L45.5 43.85L44.78 44.61C43.3421 46.1053 42.0744 47.7554 41 49.53C39.9256 47.7554 38.6579 46.1053 37.22 44.61L36.5 43.85L35.78 44.61C34.3421 46.1053 33.0744 47.7554 32 49.53C30.9256 47.7554 29.6579 46.1053 28.22 44.61L27.5 43.85L26.78 44.61C25.3421 46.1053 24.0744 47.7554 23 49.53C21.9256 47.7554 20.6579 46.1053 19.22 44.61L18.5 43.85L17.78 44.61C16.3421 46.1053 15.0744 47.7554 14 49.53C12.9256 47.7554 11.6579 46.1053 10.22 44.61L10 44.38V39.44ZM23 55.65C23.08 55.77 23.17 55.89 23.26 56H22.74C22.83 55.89 22.92 55.77 23 55.65ZM24 52.5C24 51.25 25.86 48.65 27.5 46.78C29.14 48.65 31 51.25 31 52.5C31 53.4283 30.6313 54.3185 29.9749 54.9749C29.3185 55.6312 28.4283 56 27.5 56C26.5717 56 25.6815 55.6312 25.0251 54.9749C24.3687 54.3185 24 53.4283 24 52.5ZM32 55.65C32.08 55.77 32.17 55.89 32.26 56H31.74C31.83 55.89 31.92 55.77 32 55.65ZM33 52.5C33 51.25 34.86 48.65 36.5 46.78C38.14 48.65 40 51.25 40 52.5C40 53.4283 39.6312 54.3185 38.9749 54.9749C38.3185 55.6312 37.4283 56 36.5 56C35.5717 56 34.6815 55.6312 34.0251 54.9749C33.3687 54.3185 33 53.4283 33 52.5ZM41 55.65C41.08 55.77 41.17 55.89 41.26 56H40.74C40.83 55.89 40.92 55.77 41 55.65ZM42 52.5C42 51.25 43.86 48.65 45.5 46.78C47.14 48.65 49 51.25 49 52.5C49 53.4283 48.6312 54.3185 47.9749 54.9749C47.3185 55.6312 46.4283 56 45.5 56C44.5717 56 43.6815 55.6312 43.0251 54.9749C42.3688 54.3185 42 53.4283 42 52.5ZM50 55.65C50.08 55.77 50.17 55.89 50.26 56H49.74C49.83 55.89 49.92 55.77 50 55.65ZM41 16H43V22H41V16ZM31 16H33V22H31V16ZM21 16H23V22H21V16ZM10 24.84C10 24.6172 10.0885 24.4036 10.246 24.246C10.4036 24.0885 10.6172 24 10.84 24H53.16C53.2703 24 53.3795 24.0217 53.4815 24.0639C53.5834 24.1062 53.676 24.168 53.754 24.246C53.832 24.324 53.8938 24.4166 53.9361 24.5185C53.9783 24.6205 54 24.7297 54 24.84V36C54 36.7957 53.6839 37.5587 53.1213 38.1213C52.5587 38.6839 51.7957 39 51 39C50.2043 39 49.4413 38.6839 48.8787 38.1213C48.3161 37.5587 48 36.7957 48 36V31C48 29.9391 47.5786 28.9217 46.8284 28.1716C46.0783 27.4214 45.0609 27 44 27C42.9391 27 41.9217 27.4214 41.1716 28.1716C40.4214 28.9217 40 29.9391 40 31V36C40 36.5304 39.7893 37.0391 39.4142 37.4142C39.0391 37.7893 38.5304 38 38 38C37.4696 38 36.9609 37.7893 36.5858 37.4142C36.2107 37.0391 36 36.5304 36 36V31C36 29.9391 35.5786 28.9217 34.8284 28.1716C34.0783 27.4214 33.0609 27 32 27C30.9391 27 29.9217 27.4214 29.1716 28.1716C28.4214 28.9217 28 29.9391 28 31V36.5C28.0608 37.3607 27.7801 38.2107 27.2185 38.8659C26.657 39.521 25.8599 39.9285 25 40C24.1401 39.9285 23.343 39.521 22.7815 38.8659C22.2199 38.2107 21.9392 37.3607 22 36.5V31C22 29.9391 21.5786 28.9217 20.8284 28.1716C20.0783 27.4214 19.0609 27 18 27C16.9391 27 15.9217 27.4214 15.1716 28.1716C14.4214 28.9217 14 29.9391 14 31V36C14 36.5304 13.7893 37.0391 13.4142 37.4142C13.0391 37.7893 12.5304 38 12 38C11.4696 38 10.9609 37.7893 10.5858 37.4142C10.2107 37.0391 10 36.5304 10 36V24.84ZM6 52.5C6 51.25 7.86 48.65 9.5 46.78C11.14 48.65 13 51.25 13 52.5C13 53.4283 12.6313 54.3185 11.9749 54.9749C11.3185 55.6312 10.4283 56 9.5 56C8.57174 56 7.6815 55.6312 7.02513 54.9749C6.36875 54.3185 6 53.4283 6 52.5ZM4 58H60V58.5C60 58.8978 59.842 59.2794 59.5607 59.5607C59.2794 59.842 58.8978 60 58.5 60H5.5C5.10218 60 4.72064 59.842 4.43934 59.5607C4.15804 59.2794 4 58.8978 4 58.5V58Z" fill="#1B1A33"/>
<path d="M15 42H13V44H15V42Z" fill="#1B1A33"/>
<path d="M33 41H31V43H33V41Z" fill="#1B1A33"/>
<path d="M51 43H49V45H51V43Z" fill="#1B1A33"/>
</svg>
