<?xml version="1.0" encoding="iso-8859-1"?>
<!-- Uploaded to: SVG Repo, www.svgrepo.com, Generator: SVG Repo Mixer Tools -->
<svg fill="#000000" height="64px" width="64px" version="1.1" id="Layer_1" xmlns="http://www.w3.org/2000/svg" xmlns:xlink="http://www.w3.org/1999/xlink" 
	 viewBox="0 0 512 512" xml:space="preserve">
<g>
	<g>
		<path d="M218.557,32.098C202.985,11.4,182.008,0,159.492,0C136.976,0,116,11.4,100.426,32.098
			C85.505,51.93,77.287,78.141,77.287,105.901c0,19.112,3.971,37.837,11.482,54.148c2.274,4.94,5.216,9.928,8.741,14.831
			l12.873,17.9c0.922,1.322,1.88,2.658,2.85,4.014c6.507,9.09,13.237,18.488,13.237,28.983
			c-0.062,11.921-5.848,256.049-6.554,265.981c-0.443,3.855,1.346,7.651,4.643,9.757C135.454,508.472,147.206,512,159.492,512
			c12.286,0,24.039-3.528,34.932-10.486c3.294-2.104,5.083-5.896,4.643-9.751c-0.683-9.759-6.245-253.977-6.302-265.97
			c0-10.738,6.78-20.267,13.338-29.482c0.848-1.191,1.684-2.367,2.497-3.532l12.873-17.9c3.525-4.903,6.465-9.891,8.741-14.832
			c7.512-16.31,11.482-35.034,11.482-54.147C241.696,78.14,233.478,51.93,218.557,32.098z M119.926,491.685
			c0.022-0.204,0.049-0.354,0.064-0.448C119.966,491.386,119.945,491.536,119.926,491.685z M211.686,151.515
			c-1.731,3.756-4.009,7.61-6.774,11.454l-12.913,17.956c-0.028,0.04-0.056,0.079-0.084,0.118c-0.791,1.134-1.607,2.28-2.432,3.44
			c-7.625,10.718-17.115,24.055-17.115,41.31c0,2.089,4.636,217.827,6.152,261.305c-6.101,2.992-12.48,4.504-19.027,4.504
			c-6.543,0-12.918-1.509-19.015-4.498c1.573-43.482,6.392-259.235,6.392-261.311c0-17.061-9.454-30.265-17.049-40.874
			c-0.937-1.309-1.861-2.6-2.752-3.875c-0.028-0.04-0.056-0.078-0.084-0.118l-12.913-17.956c-2.765-3.845-5.043-7.698-6.774-11.453
			c-6.288-13.655-9.612-29.428-9.612-45.615c0.001-47.148,27.727-85.504,61.806-85.504c34.08,0,61.805,38.356,61.805,85.503
			C221.298,122.089,217.974,137.862,211.686,151.515z"/>
	</g>
</g>
<g>
	<g>
		<path d="M431.728,6.145c-1.912-1.914-4.508-2.99-7.214-2.99H288.418c-2.706,0-5.302,1.076-7.214,2.99
			c-1.912,1.913-2.986,4.51-2.985,7.216c0.029,44.717,0.11,148.988,0.256,151.428c0.254,4.23,3.096,7.864,7.143,9.125
			c18.531,5.783,37.698,26.769,37.698,51.864c-0.059,11.965-5.732,256.167-6.425,265.983c-0.442,3.854,1.347,7.647,4.643,9.753
			C332.427,508.472,344.179,512,356.465,512s24.039-3.528,34.932-10.486c3.295-2.105,5.084-5.898,4.643-9.753
			c-0.695-9.82-6.371-254.02-6.431-265.968c0-25.108,19.17-46.094,37.704-51.878c4.046-1.263,6.89-4.897,7.142-9.127
			c0.146-2.439,0.229-106.709,0.256-151.426C434.716,10.655,433.642,8.058,431.728,6.145z M316.898,491.689
			c0.022-0.206,0.049-0.357,0.065-0.452C316.939,491.387,316.918,491.538,316.898,491.689z M414.129,157.168
			c-22.902,10.404-44.917,36.18-44.917,68.625c0,2.082,4.729,217.826,6.275,261.308c-6.098,2.99-12.476,4.501-19.02,4.501
			c-6.546,0-12.921-1.51-19.022-4.501c1.544-43.478,6.269-259.226,6.269-261.308c0-32.445-22.014-58.22-44.911-68.625
			c-0.085-22.31-0.151-94.518-0.18-133.614h23.454v59.211c0,5.632,4.566,10.199,10.199,10.199c5.633,0,10.199-4.567,10.199-10.199
			V23.554h27.978v106.537c0,5.632,4.566,10.199,10.199,10.199s10.199-4.567,10.199-10.199V23.554h23.455
			C414.28,62.652,414.213,134.86,414.129,157.168z"/>
	</g>
</g>
<g>
	<g>
		<path d="M332.278,109.378c-5.633,0-10.199,4.567-10.199,10.199v10.513c0,5.632,4.566,10.199,10.199,10.199
			c5.633,0,10.199-4.567,10.199-10.199v-10.513C342.477,113.945,337.911,109.378,332.278,109.378z"/>
	</g>
</g>
<g>
	<g>
		<path d="M135.468,130.518c-2.344-5.875-3.828-12.326-4.413-19.174c-0.48-5.613-5.417-9.775-11.03-9.294
			c-5.613,0.48-9.774,5.419-9.294,11.03c0.757,8.847,2.704,17.255,5.789,24.993c1.592,3.993,5.424,6.424,9.477,6.424
			c1.257,0,2.536-0.234,3.775-0.728C135.004,141.683,137.555,135.751,135.468,130.518z"/>
	</g>
</g>
<g>
	<g>
		<path d="M159.492,36.809c-17.945,0-34.412,13.342-42.973,34.818c-2.086,5.232,0.465,11.165,5.697,13.251
			c1.239,0.494,2.516,0.728,3.774,0.728c4.052,0,7.885-2.432,9.477-6.425c5.404-13.554,14.609-21.973,24.025-21.973
			c5.633,0,10.199-4.567,10.199-10.199S165.125,36.809,159.492,36.809z"/>
	</g>
</g>
</svg>