<svg width="64px" height="64px" viewBox="0 0 65 64" fill="none" xmlns="http://www.w3.org/2000/svg">
<g clip-path="url(#clip0_25_80)">
<path d="M63.5 19.6419C63.2704 19.5115 62.9985 19.4773 62.7437 19.5466C62.4889 19.6159 62.2719 19.7832 62.14 20.0119C62.14 20.0119 60.36 23.0119 55.5 25.8219H55.21L51.1 26.5319L48.19 23.5319C48.0595 23.3969 47.8937 23.3013 47.7115 23.2562C47.5293 23.211 47.338 23.218 47.1596 23.2764C46.9812 23.3349 46.8228 23.4423 46.7027 23.5865C46.5825 23.7308 46.5053 23.9059 46.48 24.0919L45.88 28.2119L42.17 30.0119C42.0428 30.0829 41.9307 30.178 41.84 30.2919L40.19 30.5219C40.1947 30.5056 40.1947 30.4882 40.19 30.4719C40.132 30.2942 40.0254 30.1363 39.8822 30.0161C39.7391 29.8959 39.5651 29.8182 39.38 29.7919L35.25 29.1919L33.4 25.4919C33.3181 25.3228 33.1902 25.1803 33.0311 25.0805C32.8719 24.9807 32.6878 24.9278 32.5 24.9278C32.3121 24.9278 32.1281 24.9807 31.9689 25.0805C31.8097 25.1803 31.6819 25.3228 31.6 25.4919L29.76 29.2319L25.63 29.8319C25.4449 29.8582 25.2709 29.9359 25.1277 30.0561C24.9846 30.1763 24.8779 30.3342 24.82 30.5119C24.28 30.4419 23.71 30.3519 23.15 30.2619C23.0632 30.1599 22.958 30.0751 22.84 30.0119L19.08 28.2119L18.5 24.0919C18.4747 23.9059 18.3975 23.7308 18.2773 23.5865C18.1571 23.4423 17.9987 23.3349 17.8203 23.2764C17.6419 23.218 17.4507 23.211 17.2685 23.2562C17.0862 23.3013 16.9204 23.3969 16.79 23.5319L13.88 26.5319L9.76997 25.8219H9.66997C4.40997 22.8219 2.41997 19.5619 2.37997 19.5019C2.31298 19.3876 2.22396 19.2878 2.11807 19.2083C2.01218 19.1287 1.89154 19.0709 1.76315 19.0384C1.63476 19.0058 1.50118 18.9991 1.37017 19.0186C1.23916 19.0381 1.11332 19.0834 0.999973 19.1519C0.772941 19.2855 0.607783 19.5033 0.540377 19.7579C0.472971 20.0125 0.508762 20.2835 0.639973 20.5119C0.729973 20.6719 2.94997 24.3719 8.91997 27.7119L10.64 31.0119L8.69997 34.6719C8.61289 34.8375 8.57402 35.0242 8.58777 35.2108C8.60153 35.3974 8.66735 35.5764 8.77778 35.7275C8.8882 35.8785 9.03878 35.9956 9.21241 36.0653C9.38604 36.135 9.57575 36.1546 9.75997 36.1219L13.87 35.4119L16.79 38.4119C16.8838 38.5076 16.9958 38.5835 17.1195 38.635C17.2432 38.6865 17.376 38.7127 17.51 38.7119C17.6128 38.7263 17.7171 38.7263 17.82 38.7119C17.9977 38.6539 18.1556 38.5473 18.2758 38.4042C18.396 38.261 18.4737 38.087 18.5 37.9019L19.1 33.7619L22.17 32.2419C23.59 32.4819 24.95 32.6619 26.28 32.7819L28.06 34.5119L27.35 38.6319C27.3143 38.8194 27.333 39.0132 27.4038 39.1904C27.4747 39.3676 27.5948 39.5208 27.75 39.6319C27.9013 39.7435 28.081 39.8103 28.2685 39.8244C28.456 39.8386 28.6436 39.7996 28.81 39.7119L32.5 37.6819L36.19 39.6319C36.3368 39.7023 36.4972 39.7398 36.66 39.7419C36.8718 39.7427 37.0784 39.6761 37.25 39.5519C37.4051 39.4408 37.5252 39.2876 37.5961 39.1104C37.667 38.9332 37.6857 38.7394 37.65 38.5519L36.94 34.4319L38.7 32.7119C40.12 32.5819 41.52 32.4019 42.87 32.1819L45.87 33.6819L46.47 37.8219C46.4963 38.007 46.5739 38.181 46.6941 38.3242C46.8143 38.4673 46.9722 38.5739 47.15 38.6319C47.2528 38.6463 47.3571 38.6463 47.46 38.6319C47.594 38.6327 47.7267 38.6065 47.8504 38.555C47.9741 38.5035 48.0862 38.4276 48.18 38.3319L51.1 35.3319L55.21 36.0419C55.3942 36.0746 55.5839 36.055 55.7575 35.9853C55.9312 35.9156 56.0817 35.7985 56.1922 35.6475C56.3026 35.4964 56.3684 35.3174 56.3822 35.1308C56.3959 34.9442 56.3571 34.7575 56.27 34.5919L54.36 31.0119L56 27.8919C61.75 24.7019 63.79 21.1919 63.87 21.0419C63.9409 20.9266 63.9876 20.798 64.0074 20.6641C64.0272 20.5301 64.0195 20.3935 63.9849 20.2626C63.9503 20.1317 63.8895 20.0092 63.8061 19.9025C63.7228 19.7958 63.6186 19.7072 63.5 19.6419ZM17.73 32.1419C17.585 32.2152 17.4601 32.3227 17.366 32.4551C17.2719 32.5875 17.2115 32.7409 17.19 32.9019L16.81 35.5519L14.94 33.6319C14.8462 33.5362 14.7341 33.4604 14.6104 33.4088C14.4867 33.3573 14.354 33.3311 14.22 33.3319H14.05L11.42 33.7919L12.66 31.4219C12.7336 31.2798 12.7721 31.122 12.7721 30.9619C12.7721 30.8018 12.7336 30.6441 12.66 30.5019L11.41 28.1319L14.04 28.5819C14.2007 28.6098 14.3659 28.598 14.521 28.5475C14.6761 28.4969 14.8165 28.4092 14.93 28.2919L16.79 26.3719L17.18 29.0119C17.2025 29.1739 17.2644 29.3279 17.3603 29.4604C17.4562 29.5929 17.5831 29.6999 17.73 29.7719L20.13 30.9419L17.73 32.1419ZM35.17 33.3919C35.0542 33.5043 34.9674 33.6431 34.9169 33.7963C34.8664 33.9495 34.8537 34.1127 34.88 34.2719L35.33 36.9119L32.97 35.6719C32.8253 35.5949 32.6639 35.5546 32.5 35.5546C32.3361 35.5546 32.1747 35.5949 32.03 35.6719L29.67 36.9119L30.12 34.2719C30.1479 34.1112 30.1361 33.946 30.0855 33.7909C30.035 33.6357 29.9473 33.4953 29.83 33.3819L27.92 31.5219L30.56 31.1419C30.722 31.1194 30.876 31.0574 31.0085 30.9616C31.141 30.8657 31.2479 30.7387 31.32 30.5919L32.5 28.1919L33.68 30.5919C33.752 30.7387 33.859 30.8657 33.9915 30.9616C34.124 31.0574 34.278 31.1194 34.44 31.1419L37.08 31.5219L35.17 33.3919ZM52.34 31.3919L53.58 33.7619L50.95 33.3019C50.7892 33.274 50.6241 33.2858 50.4689 33.3363C50.3138 33.3869 50.1734 33.4746 50.06 33.5919L48.19 35.5119L47.81 32.8619C47.7885 32.7009 47.7281 32.5476 47.634 32.4151C47.5399 32.2827 47.4149 32.1752 47.27 32.1019L44.87 30.9119L47.27 29.7419C47.4168 29.6699 47.5437 29.5629 47.6396 29.4304C47.7355 29.2979 47.7974 29.1439 47.82 28.9819L48.21 26.3419L50.07 28.2619C50.1834 28.3792 50.3238 28.4669 50.4789 28.5175C50.6341 28.568 50.7992 28.5798 50.96 28.5519L53.59 28.1019L52.34 30.4619C52.2577 30.6103 52.2145 30.7772 52.2145 30.9469C52.2145 31.1166 52.2577 31.2835 52.34 31.4319V31.3919Z" fill="#1B1A33"/>
<path d="M59.01 41.8419C61.2875 39.3434 63.1236 36.4759 64.44 33.3619C64.486 33.2385 64.5072 33.1072 64.5024 32.9756C64.4976 32.8439 64.467 32.7145 64.4122 32.5947C64.3574 32.4749 64.2795 32.3671 64.1831 32.2774C64.0866 32.1877 63.9734 32.1179 63.85 32.0719C63.7266 32.026 63.5953 32.0048 63.4636 32.0095C63.332 32.0143 63.2026 32.045 63.0828 32.0998C62.963 32.1545 62.8552 32.2324 62.7655 32.3288C62.6758 32.4253 62.606 32.5385 62.56 32.6619C61.3335 35.5571 59.6223 38.2219 57.5 40.5419L57.16 40.2519C56.9751 40.0804 56.7322 39.9851 56.48 39.9851C56.2278 39.9851 55.9849 40.0804 55.8 40.2519L51.8 44.2519C51.6383 44.419 51.5399 44.6372 51.5216 44.8689C51.5034 45.1007 51.5664 45.3316 51.7 45.5219C50.3889 46.3979 49.0113 47.1703 47.58 47.8319L47.38 47.4719C47.2615 47.261 47.0706 47.1002 46.8426 47.0193C46.6146 46.9384 46.365 46.9429 46.14 47.0319L41.14 49.0319C40.9257 49.1202 40.7487 49.2801 40.6393 49.4844C40.5298 49.6887 40.4947 49.9246 40.54 50.1519C39.1996 50.4358 37.8441 50.6428 36.48 50.7719C36.426 50.5534 36.2999 50.3596 36.122 50.2217C35.9442 50.0837 35.725 50.0098 35.5 50.0119H29.5C29.2646 50.0076 29.0353 50.0865 28.8524 50.2347C28.6695 50.3829 28.5447 50.5908 28.5 50.8219C27.1561 50.6906 25.8206 50.4836 24.5 50.2019C24.5453 49.9746 24.5102 49.7387 24.4007 49.5344C24.2913 49.3301 24.1143 49.1702 23.9 49.0819L18.9 47.0819C18.6751 46.9929 18.4255 46.9884 18.1974 47.0693C17.9694 47.1502 17.7785 47.311 17.66 47.5219L17.46 47.8819C16.0287 47.2203 14.6512 46.4479 13.34 45.5719C13.4736 45.3816 13.5367 45.1507 13.5184 44.9189C13.5002 44.6872 13.4017 44.469 13.24 44.3019L9.24001 40.3019C9.05509 40.1304 8.81221 40.0351 8.56001 40.0351C8.30781 40.0351 8.06492 40.1304 7.88001 40.3019L7.50001 40.5419C5.37801 38.2197 3.66386 35.5555 2.43001 32.6619C2.38438 32.5382 2.31475 32.4248 2.22512 32.3281C2.13548 32.2314 2.02762 32.1534 1.90773 32.0986C1.78784 32.0438 1.65829 32.0132 1.52653 32.0086C1.39478 32.004 1.26341 32.0255 1.14001 32.0719C1.01632 32.1175 0.902872 32.1872 0.806195 32.2768C0.709518 32.3664 0.631519 32.4743 0.576686 32.5942C0.521852 32.7141 0.491266 32.8436 0.486687 32.9754C0.482109 33.1071 0.503628 33.2385 0.550007 33.3619C1.86639 36.4759 3.70255 39.3434 5.98001 41.8419L0.850007 46.2519C0.709206 46.3726 0.604715 46.53 0.548207 46.7065C0.491698 46.8831 0.485397 47.072 0.530007 47.2519C0.568875 47.434 0.657802 47.6016 0.786774 47.7359C0.915746 47.8702 1.07964 47.9658 1.26001 48.0119L4.68001 48.8619L5.50001 52.2519C5.54459 52.4297 5.6372 52.5919 5.7677 52.7206C5.89821 52.8494 6.0616 52.9398 6.24001 52.9819C6.32477 53.0044 6.41235 53.0145 6.50001 53.0119C6.64445 53.0119 6.78718 52.9806 6.91837 52.9202C7.04957 52.8598 7.16612 52.7717 7.26001 52.6619L12.02 47.1119C13.4463 48.0688 14.944 48.9146 16.5 49.6419L12.68 56.5219C12.5922 56.6739 12.546 56.8464 12.546 57.0219C12.546 57.1975 12.5922 57.3699 12.68 57.5219C12.765 57.6655 12.8845 57.7856 13.0277 57.8712C13.1709 57.9567 13.3333 58.0051 13.5 58.0119H17.09L19.79 60.7219C19.8834 60.8146 19.9943 60.8879 20.1161 60.9377C20.2379 60.9875 20.3684 61.0127 20.5 61.0119C20.5797 61.0216 20.6603 61.0216 20.74 61.0119C20.9087 60.9708 21.0638 60.8865 21.1901 60.7673C21.3163 60.6481 21.4094 60.498 21.46 60.3319L23.91 52.1619C25.3688 52.4722 26.8448 52.6959 28.33 52.8319L27.5 61.9219C27.4841 62.1006 27.5165 62.2803 27.5939 62.4422C27.6713 62.6041 27.7909 62.7421 27.94 62.8419C28.0867 62.939 28.2564 62.9956 28.4319 63.0062C28.6075 63.0167 28.7828 62.9807 28.94 62.9019L32.5 61.1319L36.05 62.9019C36.2108 62.9843 36.3909 63.0216 36.5711 63.0099C36.7514 62.9981 36.9251 62.9377 37.0738 62.8352C37.2225 62.7326 37.3407 62.5917 37.4157 62.4274C37.4908 62.2631 37.5199 62.0815 37.5 61.9019L36.67 52.7819C38.1553 52.6459 39.6312 52.4222 41.09 52.1119L43.5 60.3019C43.5506 60.468 43.6437 60.6181 43.7699 60.7373C43.8962 60.8565 44.0513 60.9408 44.22 60.9819C44.3115 61.0051 44.4057 61.0152 44.5 61.0119C44.6316 61.0127 44.7621 60.9875 44.8839 60.9377C45.0058 60.8879 45.1166 60.8146 45.21 60.7219L47.91 58.0119H51.5C51.6735 58.0119 51.8441 57.9667 51.9949 57.8808C52.1457 57.7949 52.2715 57.6712 52.36 57.5219C52.4478 57.3699 52.494 57.1975 52.494 57.0219C52.494 56.8464 52.4478 56.6739 52.36 56.5219L48.54 49.6419C50.0788 48.9124 51.5598 48.0666 52.97 47.1119L57.73 52.6619C57.825 52.773 57.9431 52.8619 58.0762 52.9223C58.2092 52.9828 58.3539 53.0134 58.5 53.0119C58.5764 53.0216 58.6536 53.0216 58.73 53.0119C58.9084 52.9698 59.0718 52.8794 59.2023 52.7506C59.3328 52.6219 59.4254 52.4597 59.47 52.2819L60.32 48.8619L63.74 48.0119C63.9178 47.9673 64.08 47.8747 64.2087 47.7442C64.3375 47.6137 64.4278 47.4503 64.47 47.2719C64.5146 47.092 64.5083 46.9031 64.4518 46.7265C64.3953 46.55 64.2908 46.3925 64.15 46.2719L59.01 41.8419ZM7.01001 49.8919L6.50001 47.7719C6.45882 47.586 6.36542 47.4158 6.23079 47.2811C6.09616 47.1465 5.92589 47.0531 5.74001 47.0119L3.62001 46.5119L8.50001 42.3719L11.19 45.0619L7.01001 49.8919ZM20.01 58.1219L18.2 56.3019C18.0137 56.1172 17.7623 56.013 17.5 56.0119H15.2L18.95 49.2719L22.28 50.6019L20.01 58.1219ZM32.94 59.1219C32.8004 59.0516 32.6463 59.0149 32.49 59.0149C32.3337 59.0149 32.1796 59.0516 32.04 59.1219L29.66 60.3119L30.41 52.0119H34.59L35.34 60.3119L32.94 59.1219ZM47.5 56.0119C47.3684 56.0112 47.2379 56.0364 47.1161 56.0861C46.9943 56.1359 46.8834 56.2092 46.79 56.3019L44.98 58.1219L42.72 50.6019L46.05 49.2719L49.8 56.0119H47.5ZM59.26 47.0119C59.0834 47.0557 58.9222 47.1468 58.7935 47.2754C58.6649 47.4041 58.5738 47.5653 58.53 47.7419L58 49.8619L53.86 45.0319L56.55 42.3419L61.38 46.4819L59.26 47.0119Z" fill="#1B1A33"/>
<path d="M63.87 0.0919108C63.6246 -0.00702842 63.35 -0.00470018 63.1064 0.0983856C62.8627 0.201471 62.6698 0.396913 62.57 0.641911C62.57 0.641911 61.99 1.86191 59.57 3.28191L52.15 6.07191L52.06 6.12191C45.6364 7.51502 39.0715 8.14936 32.5 8.01191C25.9285 8.14936 19.3636 7.51502 12.94 6.12191L12.85 6.07191L5.39998 3.28191C4.18019 2.68858 3.14358 1.77637 2.39998 0.641911C2.30451 0.393933 2.11443 0.194041 1.87157 0.0862075C1.62871 -0.0216259 1.35296 -0.0285671 1.10498 0.0669108C0.857007 0.162389 0.657115 0.352465 0.549281 0.595324C0.441448 0.838184 0.434507 1.11393 0.529985 1.36191C1.21083 2.64215 2.24064 3.70316 3.49998 4.42191V14.0119C3.50039 14.2043 3.55626 14.3924 3.66091 14.5538C3.76555 14.7152 3.91453 14.843 4.08998 14.9219C4.2649 15.0007 4.45877 15.0275 4.64849 14.9991C4.83821 14.9707 5.01577 14.8884 5.15998 14.7619L12.75 8.12191C13.64 8.33191 14.6 8.53191 15.62 8.72191L17.5 18.2119C17.5399 18.4054 17.6362 18.5828 17.7768 18.7216C17.9174 18.8604 18.096 18.9545 18.29 18.9919L18.5 19.0119C18.6647 19.0111 18.8266 18.9695 18.9714 18.891C19.1162 18.8125 19.2394 18.6995 19.33 18.5619L25.17 9.81191C26.02 9.81191 26.91 9.89191 27.81 9.93191L31.59 18.4219C31.6695 18.5965 31.7976 18.7445 31.959 18.8483C32.1203 18.9521 32.3081 19.0073 32.5 19.0073C32.6918 19.0073 32.8796 18.9521 33.041 18.8483C33.2024 18.7445 33.3304 18.5965 33.41 18.4219L37.19 9.93191C38.09 9.93191 38.98 9.86191 39.83 9.81191L45.67 18.5619C45.7606 18.6995 45.8837 18.8125 46.0285 18.891C46.1733 18.9695 46.3353 19.0111 46.5 19.0119H46.69C46.8903 18.9768 47.0752 18.8814 47.2199 18.7384C47.3647 18.5955 47.4624 18.4118 47.5 18.2119L49.4 8.72191C50.4 8.53191 51.4 8.33191 52.27 8.12191L59.86 14.7619C60.0042 14.8884 60.1818 14.9707 60.3715 14.9991C60.5612 15.0275 60.7551 15.0007 60.93 14.9219C61.1017 14.8401 61.2465 14.7111 61.3475 14.5499C61.4484 14.3887 61.5013 14.2021 61.5 14.0119V4.42191C62.7483 3.6987 63.7673 2.6381 64.44 1.36191C64.5286 1.11765 64.5186 0.848499 64.4122 0.611448C64.3059 0.374398 64.1114 0.188065 63.87 0.0919108ZM19.01 15.4519L17.75 9.17191L22.75 9.80191L19.01 15.4519ZM46.01 15.4519L42.23 9.80191L47.23 9.17191L46.01 15.4519ZM5.49998 11.8119V5.59191C7.07809 6.37777 8.725 7.01712 10.42 7.50191L5.49998 11.8119ZM34.96 10.0119L32.5 15.5519L30.04 10.0119H34.96ZM59.5 11.8119L54.58 7.50191C56.275 7.01712 57.9219 6.37777 59.5 5.59191V11.8119Z" fill="#1B1A33"/>
</g>
<defs>
<clipPath id="clip0_25_80">
<rect width="64" height="64" fill="white" transform="translate(0.5)"/>
</clipPath>
</defs>
</svg>
