<svg width="24" height="24" viewBox="0 0 24 24" fill="none" xmlns="http://www.w3.org/2000/svg">
<path d="M2 5.6464V6.232C2 7.1416 2.7368 7.8784 3.6464 7.8784H21.3512C22.2608 7.8784 22.9976 7.1416 22.9976 6.232V5.6464C22.9976 4.7368 22.2608 4 21.3512 4H3.6464C2.7368 4 2 4.7368 2 5.6464ZM3.6464 14.272H21.3512C22.2608 14.272 22.9976 13.5352 22.9976 12.6256V12.0376C22.9976 11.128 22.2608 10.3912 21.3512 10.3912H3.6464C2.7368 10.3912 2 11.128 2 12.0376V12.6232C2 13.5352 2.7368 14.272 3.6464 14.272ZM3.6464 20.6632H21.3512C22.2608 20.6632 22.9976 19.9264 22.9976 19.0168V18.4312C22.9976 17.5216 22.2608 16.7848 21.3512 16.7848H3.6464C2.7368 16.7848 2 17.5216 2 18.4312V19.0168C2 19.9264 2.7368 20.6632 3.6464 20.6632Z" fill="#7772E6"/>
</svg>
