<svg width="24px" height="24px" viewBox="0 0 22 19" fill="none" xmlns="http://www.w3.org/2000/svg">
<path d="M11.2727 18.2727L2.51136 9.51136C1.8125 8.8125 1.34659 8 1.11364 7.07386C0.886364 6.14773 0.889205 5.22727 1.12216 4.3125C1.35511 3.39205 1.81818 2.59091 2.51136 1.90909C3.22159 1.21023 4.03125 0.747159 4.94034 0.519886C5.85511 0.286932 6.76705 0.286932 7.67614 0.519886C8.59091 0.752841 9.40341 1.21591 10.1136 1.90909L11.2727 3.03409L12.4318 1.90909C13.1477 1.21591 13.9602 0.752841 14.8693 0.519886C15.7784 0.286932 16.6875 0.286932 17.5966 0.519886C18.5114 0.747159 19.3239 1.21023 20.0341 1.90909C20.7273 2.59091 21.1903 3.39205 21.4233 4.3125C21.6563 5.22727 21.6563 6.14773 21.4233 7.07386C21.196 8 20.733 8.8125 20.0341 9.51136L11.2727 18.2727ZM11.2727 15.6222L18.7045 8.18182C19.1591 7.73295 19.4602 7.20739 19.608 6.60511C19.7614 6.00284 19.7642 5.40341 19.6165 4.80682C19.4688 4.20454 19.1705 3.68466 18.7216 3.24716C18.2557 2.78693 17.7244 2.48295 17.1278 2.33523C16.5369 2.18182 15.9432 2.18182 15.3466 2.33523C14.75 2.48864 14.2131 2.79545 13.7358 3.25568L11.2727 5.65057L8.80966 3.25568C8.33807 2.79545 7.80114 2.48864 7.19886 2.33523C6.60227 2.18182 6.00568 2.18182 5.40909 2.33523C4.81818 2.48295 4.28977 2.78693 3.82386 3.24716C3.375 3.68466 3.0767 4.20454 2.92898 4.80682C2.78125 5.40341 2.78409 6.00284 2.9375 6.60511C3.09091 7.20739 3.39205 7.73295 3.84091 8.18182L11.2727 15.6222Z" fill="white"/>
</svg>
