<svg width="64" height="64" viewBox="0 0 64 64" fill="none" xmlns="http://www.w3.org/2000/svg">
<path d="M32 21C31.7634 21 31.5061 21.216 31.3319 21.397C30.9508 21.7926 30.2641 22.7617 29.5859 25H34.4139C33.7355 22.7613 33.0491 21.7926 32.6684 21.3975C32.4939 21.216 32.2366 21 32 21Z" fill="black"/>
<path d="M28.6871 21.7943C27.3266 22.464 26.0549 23.546 24.9382 25H27.5045C27.8545 23.7359 28.2496 22.665 28.6871 21.7943Z" fill="black"/>
<path d="M28.4012 31H30C32.4146 31 34.4349 29.2794 34.8994 27H29.0679C28.7961 28.2222 28.5734 29.5619 28.4012 31Z" fill="black"/>
<path d="M27.0224 27H23.6353C22.9574 28.222 22.404 29.5674 21.9813 31H26.3866C26.5506 29.5739 26.7638 28.2363 27.0224 27Z" fill="black"/>
<path d="M26.1936 33H21.4853C21.228 34.2875 21.0721 35.6283 21.0205 37H26.0083C26.0286 35.6381 26.0909 34.2999 26.1936 33Z" fill="black"/>
<path d="M22.6826 24.7174C23.0976 24.0949 23.538 23.5221 23.9986 22.996C22.9482 23.557 21.9581 24.2281 21.0444 25H22.4986C22.5595 24.9051 22.6205 24.8106 22.6826 24.7174Z" fill="black"/>
<path d="M35.3129 21.7943C35.7502 22.665 36.1454 23.7357 36.4954 25H39.0616C37.9451 23.546 36.6732 22.4639 35.3129 21.7943Z" fill="black"/>
<path d="M42.0188 45H37.6135C37.4493 46.4261 37.2362 47.7638 36.9777 49H40.3648C41.0427 47.778 41.5961 46.4326 42.0188 45Z" fill="black"/>
<path d="M41.5012 25H42.9555C42.0432 24.2294 41.0548 23.5591 40.0065 22.9987C40.4656 23.5236 40.9036 24.0969 41.3173 24.7175C41.3795 24.8106 41.4405 24.9051 41.5012 25Z" fill="black"/>
<path d="M36.037 34.34C36.0649 34.287 36.0971 34.2367 36.1339 34.1899C36.7134 33.3007 37.4872 32.5486 38.3974 31.9999C37.4165 31.4087 36.5911 30.5832 35.9999 29.6024C35.4087 30.5832 34.5832 31.4086 33.6024 31.9999C34.5832 32.591 35.4086 33.4165 35.9999 34.3974C36.0117 34.3779 36.0251 34.3594 36.037 34.34Z" fill="black"/>
<path d="M30 33H28.1997C28.0935 34.2971 28.0295 35.6359 28.0086 37H34.8994C34.4349 34.7206 32.4146 33 30 33Z" fill="black"/>
<path d="M42 31H42.0189C41.596 29.5674 41.0428 28.222 40.3649 27H37.1006C37.5651 29.2794 39.5854 31 42 31Z" fill="black"/>
<path d="M25.426 39H21.0206C21.0489 39.7517 21.1091 40.4936 21.2 41.223C21.3546 41.0157 21.5851 40.8715 21.849 40.8312L24.7765 40.3839L25.426 39Z" fill="black"/>
<path d="M15.0296 37H19.018C19.0659 35.6345 19.2112 34.2951 19.4499 33H15.7469C15.3484 34.2973 15.1085 35.637 15.0296 37Z" fill="black"/>
<path d="M44.5502 33C44.7887 34.2951 44.9342 35.6345 44.9821 37H47.2229L47.4317 35.7191L45.2842 33.5181C45.1429 33.3732 45.0536 33.1919 45.0184 33H44.5502Z" fill="black"/>
<path d="M23.9826 52.9854C23.5279 52.4641 23.0927 51.8979 22.6826 51.2826C22.6205 51.1894 22.5595 51.0949 22.4987 51H21.0504C21.9594 51.7648 22.9429 52.4292 23.9826 52.9854Z" fill="black"/>
<path d="M53.9251 33.5143L52.394 33.2803C52.0643 33.2299 51.7815 33.0185 51.6398 32.7166L51 31.3535L50.3603 32.7166C50.2185 33.0185 49.9358 33.2298 49.606 33.2803L48.0749 33.5143L49.2158 34.6835C49.4374 34.9106 49.5381 35.2296 49.487 35.5429L49.2284 37.1285L49.4974 36.9799C49.5015 36.9774 49.5059 36.9752 49.5101 36.9729L50.5164 36.4166C50.6669 36.3334 50.8335 36.2918 51.0001 36.2918C51.1668 36.2918 51.3334 36.3334 51.4839 36.4166L52.7719 37.1285L52.5133 35.5429C52.4621 35.2296 52.5628 34.9106 52.7845 34.6835L53.9251 33.5143Z" fill="black"/>
<path d="M44.9602 27H42.6177C43.2224 28.2466 43.7181 29.5886 44.0979 31H47.4964C46.845 29.5586 45.9961 28.2179 44.9602 27Z" fill="black"/>
<path d="M32.2455 43H35.8002C35.9065 41.7029 35.9705 40.3641 35.9914 39H28.574L29.2235 40.3838L32.151 40.8311C32.5216 40.8877 32.8293 41.1468 32.9482 41.5023C33.0672 41.8576 32.9775 42.2496 32.7157 42.518L32.2455 43Z" fill="black"/>
<path d="M21.423 42.6602C21.4438 42.7734 21.4627 42.8876 21.4852 43H21.7545L21.423 42.6602Z" fill="black"/>
<path d="M41.5013 51C41.4405 51.0949 41.3795 51.1894 41.3174 51.2826C40.9085 51.896 40.4756 52.4627 40.0225 52.9826C41.0604 52.4271 42.0421 51.7635 42.9496 51H41.5013Z" fill="black"/>
<path d="M21.3823 27H19.0398C18.7573 27.3322 18.488 27.6756 18.2322 28.0282C18.6723 28.1331 19 28.5279 19 29C19 29.5522 18.5523 30 18 30C17.6363 30 17.2819 30.0401 16.94 30.1143C16.7875 30.405 16.6402 30.6992 16.504 31H19.9023C20.2819 29.5886 20.7777 28.2466 21.3823 27Z" fill="black"/>
<path d="M26.7509 47.572L24.3936 48.8751C24.1494 49.0102 23.865 49.0335 23.6075 48.9517C23.6165 48.9681 23.6262 48.9837 23.6352 49H27.0207C26.9246 48.5401 26.8347 48.0629 26.7509 47.572Z" fill="black"/>
<path d="M23.386 45H21.9811C22.2526 45.9199 22.5769 46.8044 22.9549 47.6426L23.386 45Z" fill="black"/>
<path d="M32 55C32.4484 55 33.4691 54.1271 34.4141 51H29.5858C30.5311 54.1274 31.5516 55 32 55Z" fill="black"/>
<path d="M19.018 39H15.0296C15.1085 40.3628 15.3484 41.7023 15.7469 43H19.4499C19.2112 41.7049 19.0659 40.3655 19.018 39Z" fill="black"/>
<path d="M24.9384 51C26.0569 52.4566 27.3312 53.5399 28.6945 54.2093C28.2536 53.3369 27.8552 52.2649 27.5042 51H24.9384Z" fill="black"/>
<path d="M21.3822 49C20.7776 47.7534 20.2818 46.4114 19.9021 45H16.5037C17.1557 46.4425 18.0042 47.7828 19.0396 49H21.3822Z" fill="black"/>
<path d="M30.614 45L31.0772 47.839C31.1388 48.2169 30.9793 48.5969 30.6661 48.8175C30.4943 48.9386 30.2925 49 30.0901 49H34.9321C35.2039 47.7778 35.4268 46.4381 35.5988 45H30.614Z" fill="black"/>
<path d="M28.964 48.52C28.9975 48.682 29.0315 48.8425 29.0665 49H30.09C29.924 49 29.7574 48.9588 29.6064 48.8751L28.964 48.52Z" fill="black"/>
<path d="M35.3055 54.2094C36.6687 53.54 37.9431 52.4566 39.0616 51H36.4959C36.1449 52.2649 35.7465 53.337 35.3055 54.2094Z" fill="black"/>
<path d="M47.3339 39.8175C47.0654 39.6284 46.911 39.3217 46.911 39H44.9821C44.9342 40.3655 44.7889 41.7049 44.5502 43H48.2532C48.595 41.8871 48.8199 40.7433 48.9269 39.5804L48.3936 39.8751C48.0584 40.0605 47.6469 40.0379 47.3339 39.8175Z" fill="black"/>
<path d="M42.6177 49H44.9601C45.9956 47.7826 46.8441 46.4426 47.4961 45H44.0979C43.7181 46.4114 43.2224 47.7534 42.6177 49Z" fill="black"/>
<path d="M29.9251 42.5143L28.394 42.2803C28.0643 42.2299 27.7815 42.0185 27.6398 41.7166L27 40.3535L26.3603 41.7166C26.2185 42.0185 25.9358 42.2298 25.606 42.2803L24.0749 42.5143L25.2158 43.6835C25.4374 43.9106 25.5381 44.2296 25.487 44.5429L25.2284 46.1285L26.5164 45.4166C26.6669 45.3334 26.8335 45.2918 27.0001 45.2918C27.1668 45.2918 27.3334 45.3334 27.4839 45.4166L28.7719 46.1285L28.5133 44.5429C28.4621 44.2296 28.5628 43.9106 28.7845 43.6835L29.9251 42.5143Z" fill="black"/>
<path d="M42.5148 33H42C40.326 33 38.8426 33.8277 37.9348 35.0946C37.9626 35.7269 37.9819 36.3636 37.9915 37H42.9794C42.9279 35.6283 42.772 34.2875 42.5148 33Z" fill="black"/>
<path d="M28 17V19.4225C29.2529 19.154 30.5359 19.0124 31.8295 19.0012C31.9425 18.9987 32.0575 18.9987 32.1706 19.0012C33.4641 19.0124 34.7471 19.154 36.0001 19.4225V17H33.0001V2H31.0001V17H28Z" fill="black"/>
<path d="M12 31.3975C13.3241 31.3975 14.3975 30.3241 14.3975 29C14.3975 27.6759 13.3241 26.6025 12 26.6025C10.6759 26.6025 9.60248 27.6759 9.60248 29C9.60248 30.3241 10.6759 31.3975 12 31.3975Z" fill="black"/>
<path d="M37.9916 39C37.9713 40.3619 37.9091 41.7001 37.8064 43H42.5148C42.772 41.7125 42.9279 40.3717 42.9795 39H37.9916Z" fill="black"/>
<path d="M12.676 54.7166L12.0361 53.3535L11.3964 54.7166C11.2546 55.0185 10.9719 55.2298 10.6421 55.2803L9.11102 55.5143L10.2519 56.6835C10.4735 56.9106 10.5743 57.2296 10.5231 57.5429L10.2646 59.1285L11.5525 58.4166C11.703 58.3334 11.8696 58.2918 12.0363 58.2918C12.2029 58.2918 12.3695 58.3334 12.52 58.4166L13.808 59.1285L13.5494 57.5429C13.4983 57.2296 13.5989 56.9106 13.8206 56.6835L14.9615 55.5143L13.4304 55.2803C13.1006 55.2299 12.8178 55.0185 12.676 54.7166Z" fill="black"/>
<path d="M52.6036 54.7166L51.9639 53.3535L51.324 54.7166C51.1823 55.0185 50.8995 55.2298 50.5699 55.2803L49.0388 55.5143L50.1796 56.6835C50.4013 56.9106 50.502 57.2296 50.4509 57.5429L50.1923 59.1285L51.4803 58.4166C51.7813 58.2501 52.1468 58.2501 52.4478 58.4166L53.7356 59.1285L53.4771 57.5429C53.426 57.2296 53.5266 56.9106 53.7484 56.6835L54.8893 55.5143L53.3581 55.2803C53.0283 55.2299 52.7454 55.0185 52.6036 54.7166Z" fill="black"/>
<path d="M20 8C21.6541 8 23 9.34587 23 11C23 11.5522 23.4478 12 24 12C24.5522 12 25 11.5522 25 11C25 9.34587 26.3459 8 28 8C28.5522 8 29 7.55225 29 7C29 6.44775 28.5522 6 28 6C26.3459 6 25 4.65412 25 3C25 2.44775 24.5522 2 24 2C23.4478 2 23 2.44775 23 3C23 4.65412 21.6541 6 20 6C19.4477 6 19 6.44775 19 7C19 7.55225 19.4477 8 20 8Z" fill="black"/>
<path d="M12.0635 18.0631C12.0635 18.6154 12.5112 19.0631 13.0635 19.0631C14.7176 19.0631 16.0635 20.409 16.0635 22.0631C16.0635 22.6154 16.5112 23.0631 17.0635 23.0631C17.6157 23.0631 18.0635 22.6154 18.0635 22.0631C18.0635 20.409 19.4094 19.0631 21.0635 19.0631C21.6157 19.0631 22.0635 18.6154 22.0635 18.0631C22.0635 17.5109 21.6157 17.0631 21.0635 17.0631C19.4094 17.0631 18.0635 15.7173 18.0635 14.0631C18.0635 13.5109 17.6157 13.0631 17.0635 13.0631C16.5112 13.0631 16.0635 13.5109 16.0635 14.0631C16.0635 15.7173 14.7176 17.0631 13.0635 17.0631C12.5112 17.0631 12.0635 17.5109 12.0635 18.0631Z" fill="black"/>
<path d="M42 18C42 18.5522 42.4477 19 43 19C44.6541 19 46 20.3459 46 22C46 22.5522 46.4478 23 47 23C47.5522 23 48 22.5522 48 22C48 20.3459 49.3459 19 51 19C51.5522 19 52 18.5522 52 18C52 17.4478 51.5522 17 51 17C49.3459 17 48 15.6541 48 14C48 13.4477 47.5522 13 47 13C46.4478 13 46 13.4477 46 14C46 15.6541 44.6541 17 43 17C42.4477 17 42 17.4478 42 18Z" fill="black"/>
<path d="M36 8C37.6541 8 39 9.34587 39 11C39 11.5522 39.4478 12 40 12C40.5522 12 41 11.5522 41 11C41 9.34587 42.3459 8 44 8C44.5522 8 45 7.55225 45 7C45 6.44775 44.5522 6 44 6C42.3459 6 41 4.65412 41 3C41 2.44775 40.5522 2 40 2C39.4478 2 39 2.44775 39 3C39 4.65412 37.6541 6 36 6C35.4477 6 35 6.44775 35 7C35 7.55225 35.4477 8 36 8Z" fill="black"/>
<path d="M55.0616 10.0032C56.1384 9.93062 56.8955 10.1052 57.1409 10.4816C57.5042 11.0396 57.0861 12.2414 56.8282 12.7332C56.5686 13.2206 56.7532 13.8264 57.2407 14.0859C57.3905 14.1657 57.5514 14.2035 57.71 14.2035C58.0676 14.2035 58.4136 14.0111 58.5934 13.6734C58.7317 13.4135 59.9139 11.0859 58.821 9.39687C58.1415 8.34687 56.831 7.8795 54.9274 8.00762C53.8514 8.08112 53.0935 7.90575 52.8481 7.52925C52.4847 6.97137 52.9026 5.77012 53.1621 5.27537C53.4199 4.78837 53.235 4.18425 52.7482 3.925C52.2607 3.66512 51.6551 3.84987 51.3956 4.3375C51.2572 4.59737 50.0751 6.925 51.168 8.614C51.8472 9.664 53.1577 10.1314 55.0616 10.0032Z" fill="black"/>
<path d="M57 22.5946C56.9979 21.929 58.0013 21.1475 58.4879 20.873C58.969 20.6042 59.1419 19.9965 58.8741 19.5145C58.6059 19.0317 57.997 18.8579 57.5144 19.126C57.2569 19.269 55 20.581 55 22.5927C55 23.8432 55.846 24.9474 57.5144 25.8742C58.457 26.398 58.9985 26.9561 59 27.4055C59.0021 28.0714 57.9981 28.8531 57.5144 29.126C57.0316 29.3942 56.8576 30.003 57.1259 30.4857C57.3086 30.8147 57.6495 31.0002 58.0009 31.0002C58.1651 31.0002 58.3318 30.9597 58.4856 30.8742C58.7431 30.7312 61 29.4192 61 27.4075C61 26.157 60.154 25.0529 58.4856 24.126C57.543 23.602 57.0015 23.044 57 22.5946Z" fill="black"/>
<path d="M10.1538 11.5131C11.0964 12.0369 11.6379 12.595 11.6394 13.0444C11.6415 13.7102 10.6375 14.492 10.1538 14.7649C9.67103 15.0331 9.49703 15.6419 9.76528 16.1246C9.94803 16.4536 10.2889 16.6391 10.6403 16.6391C10.8045 16.6391 10.9712 16.5986 11.125 16.5131C11.3825 16.3701 13.6394 15.0581 13.6394 13.0464C13.6394 11.7959 12.7934 10.6917 11.125 9.76487C10.1824 9.24112 9.6409 8.683 9.6394 8.23362C9.63728 7.568 10.6407 6.7865 11.1273 6.512C11.6084 6.24325 11.7813 5.6355 11.5135 5.1535C11.2453 4.67062 10.6363 4.49674 10.1538 4.76499C9.89628 4.90799 7.6394 6.21999 7.6394 8.23174C7.6394 9.48212 8.4854 10.5862 10.1538 11.5131Z" fill="black"/>
<path d="M6.48562 41.1259C5.543 40.6021 5.0015 40.044 5 39.5946C4.99787 38.929 6.00125 38.1475 6.48787 37.873C6.969 37.6043 7.14187 36.9965 6.87413 36.5145C6.60588 36.0316 5.997 35.8578 5.51438 36.126C5.257 36.2688 3 37.5808 3 39.5926C3 40.8431 3.846 41.9473 5.51438 42.8741C6.457 43.3979 6.9985 43.956 7 44.4054C7.00212 45.0713 5.99813 45.853 5.51438 46.1259C5.03163 46.3941 4.85763 47.0029 5.12587 47.4856C5.30862 47.8146 5.6495 48.0001 6.00087 48.0001C6.16512 48.0001 6.33175 47.9596 6.48562 47.8741C6.743 47.7313 9 46.4193 9 44.4074C9 43.1569 8.154 42.0528 6.48562 41.1259Z" fill="black"/>
<path d="M45 58H44V57C44 56.4477 43.5522 56 43 56C42.4478 56 42 56.4477 42 57V58H41C40.4477 58 40 58.4478 40 59C40 59.5522 40.4477 60 41 60H42V61C42 61.5522 42.4478 62 43 62C43.5522 62 44 61.5522 44 61V60H45C45.5522 60 46 59.5522 46 59C46 58.4478 45.5522 58 45 58Z" fill="black"/>
<path d="M23 58H22V57C22 56.4477 21.5522 56 21 56C20.4478 56 20 56.4477 20 57V58H19C18.4477 58 18 58.4478 18 59C18 59.5522 18.4477 60 19 60H20V61C20 61.5522 20.4478 62 21 62C21.5522 62 22 61.5522 22 61V60H23C23.5522 60 24 59.5522 24 59C24 58.4478 23.5522 58 23 58Z" fill="black"/>
<path d="M60 41H59V40C59 39.4477 58.5522 39 58 39C57.4478 39 57 39.4477 57 40V41H56C55.4477 41 55 41.4478 55 42C55 42.5522 55.4477 43 56 43H57V44C57 44.5522 57.4478 45 58 45C58.5522 45 59 44.5522 59 44V43H60C60.5522 43 61 42.5522 61 42C61 41.4478 60.5522 41 60 41Z" fill="black"/>
</svg>
