<!DOCTYPE svg PUBLIC "-//W3C//DTD SVG 1.1//EN" "http://www.w3.org/Graphics/SVG/1.1/DTD/svg11.dtd">

<!-- Uploaded to: SVG Repo, www.svgrepo.com, Transformed by: SVG Repo Mixer Tools -->
<svg fill="#1B1A33" width="24px" height="24px" viewBox="0 0 16 16" xmlns="http://www.w3.org/2000/svg">

<g id="SVGRepo_bgCarrier" stroke-width="0"/>

<g id="SVGRepo_tracerCarrier" stroke-linecap="round" stroke-linejoin="round"/>

<g id="SVGRepo_iconCarrier">

<path d="M13.8 2.2a2.51 2.51 0 0 0-3.54 0l-6.9 6.91-1.76 3.62a1.26 1.26 0 0 0 1.12 1.8 1.23 1.23 0 0 0 .55-.13l3.62-1.76 6-6 .83-.82.06-.06a2.52 2.52 0 0 0 .02-3.56zm-.89.89a1.25 1.25 0 0 1 0 1.77l-1.77-1.77a1.24 1.24 0 0 1 .86-.37 1.22 1.22 0 0 1 .91.37zM2.73 13.27 4.29 10 6 11.71zm4.16-2.4L5.13 9.11 10.26 4 12 5.74z"/>

</g>

</svg>