<svg width="64" height="64" viewBox="0 0 64 64" fill="none" xmlns="http://www.w3.org/2000/svg">
<path d="M32.6 2.20001C32.2 1.90001 31.7 1.90001 31.4 2.20001L2.4 24.2C2.1 24.4 2 24.7 2 25V61C2 61.6 2.4 62 3 62H61C61.6 62 62 61.6 62 61V25C62 24.7 61.9 24.4 61.6 24.2L32.6 2.20001ZM13 26V49.6L4 58.6V26H13ZM49 49H40V47.8C41.2 47.4 42 46.3 42 45C42 43.4 40.8 42.1 39.2 42L45.7 34.6C46 34.3 46 33.8 45.8 33.5C45.6 33.1 45.2 32.9 44.8 33L42.2 33.4C40.4 33.7 38.8 34.5 37.5 35.7C38.1 32.5 38.3 29.3 38 26V25.9C38 25.5 37.6 25.1 37.2 25C36.8 24.9 36.4 25.1 36.1 25.4L35.7 26C34.4 28 33.4 30.2 32.7 32.4C32.4 30.7 31.9 29 31.2 27.3L29.9 24.4C29.7 24 29.3 23.8 28.9 23.8C28.5 23.8 28.1 24.1 28 24.5L27.1 27.1C26.2 29.7 25.9 32.5 26.1 35.3C24.9 34.2 23.3 33.5 21.7 33.2L19.1 33C18.7 32.9 18.3 33.1 18.1 33.5C17.9 33.9 18 34.3 18.2 34.6L24.7 42C23.1 42.1 21.9 43.4 21.9 45C21.9 46.3 22.7 47.4 23.9 47.8V49H14.9V25.5L31.9 12.3L48.9 25.5V49H49ZM36.6 42H36.5L37.4 39.5C38.2 37.3 40.2 35.7 42.5 35.4L36.6 42ZM33.4 42H33C33.1 37.6 34.2 33.3 36.2 29.4C36.2 33.7 35.2 38 33.4 42ZM30.6 40.3L30.2 42H29.7L29.1 40.1C27.8 36.2 27.8 31.8 29.1 27.9V27.8L29.3 28.3C31 32 31.5 36.3 30.6 40.3ZM27.6 42H27.5L21.6 35.4C23.9 35.8 25.8 37.3 26.7 39.5L27.6 42ZM39 44C39.6 44 40 44.4 40 45C40 45.6 39.6 46 39 46H25C24.4 46 24 45.6 24 45C24 44.4 24.4 44 25 44H39ZM26 48H38V55C38 55.6 37.6 56 37 56H27C26.4 56 26 55.6 26 55V48ZM14.4 51H24V55C24 56.7 25.3 58 27 58H37C38.7 58 40 56.7 40 55V51H49.6L58.6 60H5.4L14.4 51ZM51 49.6V26H60V58.6L51 49.6ZM32 4.30001L58 24H50.3L32.6 10.2C32.2 9.90001 31.7 9.90001 31.4 10.2L13.7 24H6L32 4.30001Z" fill="#1B1A33"/>
</svg>
