<svg width="16" height="16" viewBox="0 0 16 16" fill="none" xmlns="http://www.w3.org/2000/svg">
<g clip-path="url(#clip0_13_514)">
<path d="M15.56 13.44L11.8896 9.768C11.3424 10.6192 10.6192 11.3424 9.768 11.8896L13.44 15.56C14.0256 16.1472 14.976 16.1472 15.56 15.56C16.1472 14.976 16.1472 14.0256 15.56 13.44ZM12 6C12 2.6864 9.3136 0 6 0C2.6864 0 0 2.6864 0 6C0 9.3136 2.6864 12 6 12C9.3136 12 12 9.3136 12 6ZM6 10.4992C3.5184 10.4992 1.4992 8.4816 1.4992 6C1.4992 3.5184 3.5184 1.4992 6 1.4992C8.4816 1.4992 10.5008 3.5184 10.5008 6C10.5008 8.4816 8.4816 10.4992 6 10.4992ZM2.5008 6H3.5008C3.5008 4.6208 4.6208 3.5008 6 3.5008V2.5008C4.0704 2.5008 2.5008 4.0704 2.5008 6Z" fill="white"/>
</g>
<defs>
<clipPath id="clip0_13_514">
<rect width="16" height="16" fill="white"/>
</clipPath>
</defs>
</svg>
